<svg width="25" height="24" viewBox="0 0 25 24" fill="none" xmlns="http://www.w3.org/2000/svg">
<path d="M21.6665 10C21.6665 17 12.6665 23 12.6665 23C12.6665 23 3.6665 17 3.6665 10C3.6665 7.61305 4.61472 5.32387 6.30254 3.63604C7.99037 1.94821 10.2796 1 12.6665 1C15.0535 1 17.3426 1.94821 19.0305 3.63604C20.7183 5.32387 21.6665 7.61305 21.6665 10Z" stroke="#27272A" stroke-linecap="round" stroke-linejoin="round"/>
<path d="M12.6665 13C14.3234 13 15.6665 11.6569 15.6665 10C15.6665 8.34315 14.3234 7 12.6665 7C11.0096 7 9.6665 8.34315 9.6665 10C9.6665 11.6569 11.0096 13 12.6665 13Z" stroke="#27272A" stroke-linecap="round" stroke-linejoin="round"/>
</svg>
