<svg width="137" height="40" viewBox="0 0 137 40" fill="none" xmlns="http://www.w3.org/2000/svg">
<g clip-path="url(#clip0_259_4366)">
<path d="M28.2025 0.384547C28.0135 0.207103 27.7171 0.218932 27.542 0.410572C27.367 0.602213 27.3787 0.902686 27.5677 1.08013L35.1177 8.17792C35.3068 8.35536 35.6032 8.34354 35.7782 8.15189C35.9533 7.96025 35.9416 7.65978 35.7525 7.48234L28.2025 0.384547Z" fill="#48B649"/>
<path d="M28.3092 25.2789H27.5857V24.5455C27.5857 24.2852 27.3757 24.0723 27.119 24.0723C26.8622 24.0723 26.6522 24.2852 26.6522 24.5455V25.2789H25.9287C25.672 25.2789 25.4619 25.4918 25.4619 25.7521C25.4619 26.0123 25.672 26.2253 25.9287 26.2253H26.6522V26.9587C26.6522 27.219 26.8622 27.4319 27.119 27.4319C27.3757 27.4319 27.5857 27.219 27.5857 26.9587V26.2253H28.3092C28.566 26.2253 28.776 26.0123 28.776 25.7521C28.776 25.4918 28.5683 25.2789 28.3092 25.2789Z" fill="#48B649"/>
<path d="M14.0215 34.7636C14.0215 35.0262 14.2315 35.2368 14.4883 35.2368C14.745 35.2368 14.955 35.0262 14.955 34.7636V34.1484H14.0215V34.7636Z" fill="#48B649"/>
<path d="M14.0219 32.3521C14.0219 32.6123 14.232 32.8252 14.4887 32.8252C14.7454 32.8252 14.9555 32.6123 14.9555 32.3521V22.841C14.9555 22.8363 14.9532 22.8292 14.9532 22.8245C14.9532 22.8079 14.9508 22.7913 14.9485 22.7748C14.9462 22.7606 14.9438 22.7464 14.9415 22.7322C14.9368 22.718 14.9321 22.7038 14.9275 22.6896C14.9228 22.6754 14.9181 22.6612 14.9111 22.647C14.9041 22.6328 14.8971 22.621 14.8901 22.6068C14.8831 22.595 14.8761 22.5808 14.8668 22.5689C14.8575 22.5571 14.8481 22.5453 14.8365 22.5334C14.8271 22.5216 14.8178 22.5098 14.8061 22.5003C14.7944 22.4909 14.7851 22.4814 14.7734 22.4719C14.7594 22.4625 14.7478 22.4506 14.7338 22.4435C14.7291 22.4412 14.7244 22.4364 14.7198 22.4341C13.7605 21.8828 12.6823 21.1352 11.6367 20.132C11.5084 20.009 11.38 19.8812 11.254 19.7487L13.6042 17.7803C13.7956 17.9696 13.9893 18.1517 14.1853 18.3197C14.7314 18.8426 15.3476 19.2377 15.8307 19.5074C16.3185 19.7795 16.6732 19.9238 16.6872 19.9286C16.9276 20.0256 17.1983 19.9073 17.294 19.6659C17.3897 19.4223 17.273 19.1478 17.035 19.0508H17.0326C17.0046 19.039 16.6755 18.9017 16.2391 18.6557C15.8027 18.4096 15.2612 18.0524 14.8108 17.6194L14.7921 17.6028C14.0056 16.9215 13.2448 16.0697 12.6193 15.0216C12.1992 14.3118 11.8374 13.5074 11.5714 12.5752C11.3053 11.6454 11.1303 10.5855 11.0999 9.36705V9.36941C11.0673 8.0161 9.97503 6.94434 8.64706 6.94434H8.58871C7.25841 6.97509 6.20117 8.07762 6.20117 9.42146C6.20117 9.44276 6.20117 9.46405 6.20117 9.48535C6.27352 12.4711 7.01336 15.0003 8.11494 17.0374C8.93879 18.5634 9.95169 19.8126 10.9926 20.8134C12.0172 21.7976 13.0674 22.5429 14.0196 23.1107V32.3521H14.0219Z" fill="#1E1E1E"/>
<path d="M34.6353 20.8162C35.6762 19.813 36.6891 18.5662 37.5129 17.0402C38.6145 15.0031 39.3567 12.4763 39.4267 9.48812C39.4267 9.46683 39.4267 9.44554 39.4267 9.42424C39.4267 8.0804 38.3695 6.97787 37.0392 6.94238H36.9808C36.318 6.94238 35.7112 7.2121 35.2678 7.64743C34.8243 8.08276 34.5443 8.69317 34.5279 9.36746V9.3651C34.4953 10.5836 34.3226 11.6411 34.0565 12.5733C33.9981 12.7791 33.9281 12.985 33.8581 13.1932C33.7764 13.4369 33.6551 13.7279 33.5454 13.9763C33.4357 14.2224 33.3307 14.4329 33.2933 14.5039C33.2303 14.6222 33.1206 14.8162 33.0483 14.9534C32.8616 15.313 32.4508 15.8809 32.2431 16.1317C31.788 16.6877 31.3189 17.1845 30.8358 17.6009L30.8334 17.6033C30.39 17.9936 29.8229 18.3438 29.1857 18.597C28.5486 18.8477 27.8391 19.0015 27.1063 19.0015C26.4808 19.0015 25.8343 18.8903 25.1902 18.6372C24.9498 18.5425 24.679 18.6632 24.5857 18.9069C24.4923 19.1506 24.6114 19.425 24.8517 19.5197C25.6079 19.8178 26.3711 19.9479 27.1063 19.9479C27.9675 19.9479 28.7866 19.7705 29.5241 19.4795C30.2593 19.1884 30.9128 18.7839 31.4426 18.3225C31.6386 18.1522 31.83 17.97 32.019 17.7807L34.3739 19.7539C34.2479 19.8864 34.1195 20.0142 33.9911 20.1372C32.9456 21.1403 31.8673 21.888 30.9081 22.4392C30.9035 22.4416 30.8988 22.4463 30.8918 22.4511C30.8801 22.4582 30.8684 22.4676 30.8568 22.4771C30.8428 22.4866 30.8288 22.4984 30.8171 22.5102C30.8078 22.5197 30.8008 22.5268 30.7914 22.5362C30.7798 22.5504 30.7681 22.5646 30.7564 22.5788C30.7494 22.5883 30.7447 22.5977 30.7377 22.6072C30.7284 22.6238 30.7191 22.6403 30.7121 22.6569C30.7074 22.6664 30.7027 22.6782 30.7004 22.69C30.6934 22.7089 30.6887 22.7255 30.6841 22.7444C30.6817 22.7563 30.6794 22.7657 30.6794 22.7776C30.6771 22.7989 30.6747 22.8178 30.6724 22.8391C30.6724 22.8438 30.6701 22.8485 30.6701 22.8509V36.4172C30.6701 36.8667 30.4927 37.2689 30.201 37.5623C29.9092 37.8556 29.5148 38.0354 29.0714 38.0378L29.02 38.0402H29.0177C28.9407 38.0473 27.2043 38.22 16.6109 38.7713C17.5771 34.1151 17.8968 30.9992 17.8968 28.6995C17.8968 26.4566 17.5911 24.9826 17.311 23.6695C17.241 23.343 17.2083 23.0189 17.2083 22.7184C17.2083 22.4085 17.2457 22.1198 17.3134 21.8785C17.3811 21.6372 17.4814 21.4432 17.5934 21.3083C17.7615 21.1096 17.7358 20.8115 17.5398 20.6411C17.3437 20.4708 17.0496 20.4968 16.8816 20.6955C16.6622 20.9582 16.5105 21.2752 16.4148 21.6183C16.3191 21.9613 16.2748 22.3328 16.2725 22.7184C16.2725 23.0922 16.3145 23.4802 16.3962 23.8683C16.6739 25.1813 16.961 26.5418 16.961 28.6995C16.961 30.7933 16.6832 33.6466 15.8384 37.8651C15.6237 37.7563 15.4346 37.6048 15.2876 37.4132C15.0752 37.1364 14.9492 36.7933 14.9492 36.4148V35.9511C14.9492 35.6908 14.7391 35.4779 14.4824 35.4779C14.2257 35.4779 14.0156 35.6908 14.0156 35.9511V36.4148C14.0156 37.011 14.2163 37.5623 14.5547 37.9976C14.8348 38.3619 15.2129 38.6435 15.647 38.8115C15.6213 38.9321 15.598 39.0504 15.5723 39.1735C15.542 39.3178 15.5793 39.4692 15.6727 39.5804C15.766 39.6916 15.9084 39.7531 16.0531 39.746C21.8037 39.4479 25.0665 39.2563 26.8915 39.1403C28.6653 39.0268 29.0807 38.9842 29.118 38.9795C30.495 38.9534 31.6036 37.8178 31.6036 36.4148V23.1135C32.5605 22.5457 33.6084 21.7981 34.6353 20.8162Z" fill="#1E1E1E"/>
<path d="M26.7867 14.8381C26.9938 12.6148 25.3837 10.6423 23.1906 10.4324C20.9975 10.2225 19.0517 11.8547 18.8447 14.0779C18.6376 16.3012 20.2476 18.2737 22.4407 18.4836C24.6339 18.6935 26.5796 17.0614 26.7867 14.8381Z" fill="#1E1E1E"/>
<path d="M18.8935 33.4053C18.6345 33.4053 18.4268 33.6182 18.4268 33.8785C18.4268 34.1411 18.6368 34.3516 18.8935 34.3516C19.1526 34.3516 19.3603 34.1387 19.3603 33.8785C19.3626 33.6182 19.1526 33.4053 18.8935 33.4053Z" fill="#1E1E1E"/>
<path d="M19.6972 31.5503C19.6972 31.2877 19.4872 31.0771 19.2304 31.0771C18.9714 31.0771 18.7637 31.2901 18.7637 31.5503C18.7637 31.813 18.9737 32.0235 19.2304 32.0235C19.4872 32.0235 19.6972 31.813 19.6972 31.5503Z" fill="#1E1E1E"/>
<path d="M20.0341 29.2222C20.0341 28.9596 19.8241 28.749 19.5674 28.749C19.3083 28.749 19.1006 28.962 19.1006 29.2222C19.1006 29.4848 19.3106 29.6954 19.5674 29.6954C19.8241 29.6954 20.0341 29.4825 20.0341 29.2222Z" fill="#1E1E1E"/>
<path d="M19.5644 26.4189C19.3054 26.4189 19.0977 26.6319 19.0977 26.8921C19.0977 27.1547 19.3077 27.3653 19.5644 27.3653C19.8235 27.3653 20.0312 27.1524 20.0312 26.8921C20.0335 26.6319 19.8235 26.4189 19.5644 26.4189Z" fill="#1E1E1E"/>
<path d="M19.2285 25.0372C19.4876 25.0372 19.6953 24.8243 19.6953 24.564C19.6953 24.3014 19.4852 24.0908 19.2285 24.0908C18.9694 24.0908 18.7617 24.3038 18.7617 24.564C18.7617 24.8266 18.9718 25.0372 19.2285 25.0372Z" fill="#1E1E1E"/>
<path d="M18.3066 22.2359C18.3066 22.4985 18.5167 22.7091 18.7734 22.7091C19.0325 22.7091 19.2402 22.4962 19.2402 22.2359C19.2402 21.9733 19.0301 21.7627 18.7734 21.7627C18.5144 21.7603 18.3066 21.9733 18.3066 22.2359Z" fill="#1E1E1E"/>
<path d="M20.5146 19.0728C20.5146 19.3354 20.7247 19.546 20.9814 19.546C21.2405 19.546 21.4482 19.3331 21.4482 19.0728C21.4482 18.8102 21.2381 18.5996 20.9814 18.5996C20.7247 18.5973 20.5146 18.8102 20.5146 19.0728Z" fill="#1E1E1E"/>
<path d="M18.3066 20.378C18.5657 20.378 18.7734 20.1651 18.7734 19.9048C18.7734 19.6422 18.5634 19.4316 18.3066 19.4316C18.0476 19.4316 17.8399 19.6446 17.8399 19.9048C17.8375 20.1674 18.0476 20.378 18.3066 20.378Z" fill="#1E1E1E"/>
<path d="M20.205 19.8199C20.205 19.5572 19.995 19.3467 19.7383 19.3467C19.4792 19.3467 19.2715 19.5596 19.2715 19.8199C19.2715 20.0825 19.4815 20.2931 19.7383 20.2931C19.995 20.2931 20.205 20.0825 20.205 19.8199Z" fill="#1E1E1E"/>
<path d="M14.955 33.5308C14.955 33.2706 14.745 33.0576 14.4883 33.0576C14.2315 33.0576 14.0215 33.2706 14.0215 33.5308V34.1483H14.955V33.5308Z" fill="#1E1E1E"/>
<path d="M121.277 28.4152C121.967 27.6865 122.371 26.7047 122.371 25.5099C122.374 23.8585 121.718 22.7204 120.675 22.0083C119.631 21.2938 118.21 21.0004 116.667 20.998H111.523V37.1952H113.857V37.136V30.0454H116.14L120.173 37.1999H122.999L118.553 29.8017C119.657 29.5958 120.602 29.1274 121.277 28.4152ZM113.857 28.0414V23.0256H116.511C117.468 23.0256 118.35 23.1794 118.985 23.5651C119.62 23.9531 120.014 24.5611 120.014 25.5099C120.012 26.4586 119.617 27.0785 118.964 27.4783C118.31 27.8758 117.388 28.0414 116.352 28.0414H113.857Z" fill="#48B649"/>
<path d="M130.474 31.4627L134.351 26.3145H131.739L129.146 29.9745L126.579 26.3145H123.83L127.751 31.484L123.449 37.1977H126.131L129.102 33.0384L132.028 37.1977H134.799L130.474 31.4627Z" fill="#48B649"/>
<path d="M53.6651 31.3584C53.413 31.3584 53.21 31.5642 53.21 31.8198C53.21 32.0753 53.413 32.2811 53.6651 32.2811C53.9171 32.2811 54.1202 32.0753 54.1202 31.8198C54.1225 31.5642 53.9171 31.3584 53.6651 31.3584Z" fill="#48B649"/>
<path d="M55.3565 32.2792C55.6078 32.2792 55.8116 32.0726 55.8116 31.8178C55.8116 31.563 55.6078 31.3564 55.3565 31.3564C55.1051 31.3564 54.9014 31.563 54.9014 31.8178C54.9014 32.0726 55.1051 32.2792 55.3565 32.2792Z" fill="#48B649"/>
<path d="M57.0498 31.3564C56.7978 31.3564 56.5947 31.5623 56.5947 31.8178C56.5947 32.0733 56.7978 32.2792 57.0498 32.2792C57.3019 32.2792 57.5049 32.0733 57.5049 31.8178C57.5073 31.5623 57.3019 31.3564 57.0498 31.3564Z" fill="#48B649"/>
<path d="M47.2862 33.6512L47.2535 33.6985C46.1683 35.3381 44.4412 36.0573 42.6418 36.0573C38.5995 36.0573 36.1163 32.8207 36.114 29.0991C36.1163 25.3775 38.5762 22.1409 42.6418 22.1409C44.6372 22.1409 46.2126 23.2009 46.8731 24.2253L46.9058 24.2774L48.3457 23.2056L48.3131 23.1583C47.1998 21.5707 44.9663 20.5912 42.6208 20.5889C40.2426 20.5889 38.1608 21.4856 36.6741 22.9998C35.1874 24.5116 34.2959 26.6409 34.2959 29.0968C34.2959 31.5526 35.1688 33.6796 36.6484 35.1938C38.1281 36.708 40.2099 37.6046 42.6208 37.6046C45.4844 37.6046 47.5429 36.2087 48.6071 34.581L48.6398 34.5313L48.5908 34.4982L47.2862 33.6512Z" fill="#1E1E1E"/>
<path d="M67.9592 26.1797C66.5076 26.1821 65.0232 26.9959 64.3861 28.1813C64.3791 27.7128 64.3394 27.0196 64.2974 26.5062L64.2927 26.4518H64.2391H62.7197L62.7267 26.5157C62.7944 27.2396 62.8154 28.283 62.8154 28.8485V37.1978H64.4561V31.6876C64.4561 30.2799 64.8459 29.2554 65.427 28.5835C66.0105 27.9116 66.7876 27.5898 67.5788 27.5898C68.6641 27.5922 69.3502 27.9565 69.7773 28.5906C70.2044 29.227 70.3678 30.1474 70.3655 31.2546V37.1955H72.0062V30.6182C72.0062 29.2909 71.6724 28.1813 70.9979 27.4005C70.3211 26.6221 69.3035 26.1773 67.9592 26.1797Z" fill="#1E1E1E"/>
<path d="M82.1841 34.6728C81.5866 35.4772 80.6904 36.0332 79.3858 36.0356C78.1792 36.0356 77.199 35.5766 76.5198 34.8219C75.8383 34.0671 75.4579 33.0143 75.4579 31.8242C75.4579 30.6223 75.8453 29.5648 76.5315 28.8077C77.2176 28.0506 78.2025 27.5916 79.4091 27.5916C80.5317 27.5916 81.568 28.1736 82.0487 28.9709L82.0814 29.0253L82.1328 28.9875L83.3674 28.0884L83.3324 28.0411C82.4222 26.7966 80.8141 26.1791 79.3881 26.1768C77.6821 26.1768 76.2654 26.7777 75.2782 27.788C74.2886 28.7958 73.7285 30.2083 73.7285 31.8242C73.7285 33.4402 74.2886 34.8526 75.2782 35.8605C76.2678 36.8684 77.6844 37.4717 79.3881 37.4717C81.2179 37.4717 82.5155 36.7359 83.421 35.6097L83.4607 35.5624L82.2238 34.6279L82.1841 34.6728Z" fill="#1E1E1E"/>
<path d="M89.8279 26.1797C88.3226 26.1797 86.9853 26.783 86.0261 27.7909C85.0669 28.7988 84.4834 30.2112 84.4834 31.8272C84.4834 33.4431 85.0669 34.8556 86.0424 35.8635C87.0203 36.8713 88.3903 37.4746 89.9633 37.4746C91.702 37.4746 93.2704 36.8075 94.512 35.2034L94.547 35.156L93.3077 34.1694L93.2727 34.2262C92.7009 35.1631 91.5083 36.0385 89.961 36.0385C87.8628 36.0385 86.2665 34.3729 86.1918 32.2956H94.8761L94.8808 32.2412C94.9041 31.9668 94.9041 31.7136 94.9041 31.5101C94.9041 30.0456 94.47 28.7136 93.6158 27.7459C92.7593 26.7759 91.4873 26.1773 89.8279 26.1797ZM86.2175 30.9494C86.3808 29.1868 87.8442 27.5922 89.8256 27.5922C90.8992 27.5922 91.7277 27.9565 92.3018 28.5622C92.8643 29.156 93.1817 29.9865 93.2354 30.9494H86.2175Z" fill="#1E1E1E"/>
<path d="M101.186 26.1797C99.7347 26.1797 98.4581 26.9983 97.8373 28.1789C97.8303 27.7104 97.7906 27.0196 97.7486 26.5062L97.7439 26.4518H96.1709L96.1779 26.5156C96.2456 27.2396 96.2666 28.283 96.2666 28.8485V37.1978H97.9073V31.6876C97.9073 30.2775 98.269 29.2885 98.8222 28.6521C99.3753 28.0156 100.124 27.727 100.918 27.727C101.116 27.727 101.338 27.7436 101.532 27.7696C101.725 27.7956 101.891 27.8287 101.973 27.8595L102.041 27.8855L102.26 26.3074L102.211 26.2933C101.889 26.201 101.569 26.1797 101.186 26.1797Z" fill="#1E1E1E"/>
<path d="M109.731 35.5251L109.652 35.5653C109.258 35.7664 108.77 35.8989 108.357 35.8989C107.904 35.8989 107.531 35.809 107.269 35.5369C107.008 35.2648 106.847 34.794 106.847 34.0062V27.8642H109.804V27.805V26.4517H106.847V23.4541H105.206V26.4517H103.033V27.8642H105.206V34.4368C105.206 35.6197 105.605 36.3508 106.154 36.7814C106.7 37.2096 107.386 37.335 107.953 37.335C108.653 37.335 109.223 37.2191 109.766 37.0133L109.806 36.9991L109.731 35.5251Z" fill="#1E1E1E"/>
<path d="M58.2097 26.2246H52.5104C51.7519 26.2246 51.0588 26.5393 50.564 27.0409C50.0669 27.5424 49.7565 28.2451 49.7588 29.014V34.6237C49.7588 35.3926 50.0692 36.0953 50.564 36.5969C51.0588 37.1008 51.7519 37.4155 52.5104 37.4131H58.2097C58.9682 37.4131 59.6614 37.0984 60.1562 36.5969C60.6533 36.0953 60.9637 35.3926 60.9613 34.6237V29.014C60.9613 28.2451 60.6509 27.5424 60.1562 27.0409C59.6614 26.5369 58.9682 26.2246 58.2097 26.2246ZM59.3276 34.6237C59.3276 34.9407 59.2039 35.2175 59.0009 35.4257C58.7955 35.6316 58.5201 35.7569 58.2097 35.7569H52.5104C52.1977 35.7569 51.9246 35.6316 51.7192 35.4257C51.5162 35.2175 51.3925 34.9383 51.3925 34.6237V29.014C51.3925 28.697 51.5162 28.4202 51.7192 28.212C51.9246 28.0062 52.2 27.8808 52.5104 27.8808H58.2097C58.5225 27.8808 58.7955 28.0062 59.0009 28.212C59.2039 28.4202 59.3276 28.6994 59.3276 29.014V34.6237Z" fill="#1E1E1E"/>
</g>
<defs>
<clipPath id="clip0_259_4366">
<rect width="137" height="40" fill="white"/>
</clipPath>
</defs>
</svg>
